<?xml version="1.0" standalone="no"?>
<!DOCTYPE svg PUBLIC "-//W3C//DTD SVG 20010904//EN"
 "http://www.w3.org/TR/2001/REC-SVG-20010904/DTD/svg10.dtd">
<svg version="1.0" xmlns="http://www.w3.org/2000/svg"
 width="500.000000pt" height="500.000000pt" viewBox="0 0 500.000000 500.000000"
 preserveAspectRatio="xMidYMid meet">
<metadata>
Created by potrace 1.11, written by Peter Selinger 2001-2013
</metadata>
<g transform="translate(0.000000,500.000000) scale(0.100000,-0.100000)"
fill="#000000" stroke="none">
<path d="M3160 3964 c-290 -50 -519 -237 -613 -500 -44 -121 -55 -208 -62
-484 -3 -107 -7 -251 -10 -320 -25 -731 -25 -814 -1 -944 29 -151 148 -326
286 -420 293 -200 747 -184 1128 41 383 225 609 613 605 1035 -1 87 -33 146
-94 176 -74 37 -186 18 -245 -42 -34 -34 -43 -59 -48 -132 -17 -239 -88 -408
-233 -561 -140 -147 -313 -223 -510 -223 -198 0 -338 84 -384 230 -19 60 -20
81 -14 290 3 124 8 261 10 305 2 44 7 145 10 225 21 572 24 623 44 655 3 6 6
12 6 15 2 18 40 72 71 103 64 62 161 81 206 40 42 -38 59 -90 63 -196 6 -126
16 -158 65 -200 49 -42 95 -56 169 -52 154 7 252 143 252 348 0 203 -72 385
-195 492 -125 110 -307 153 -506 119z"/>
<path d="M1529 3946 c-2 -2 -29 -6 -60 -9 -376 -40 -768 -297 -952 -624 -111
-197 -178 -504 -142 -647 27 -104 138 -159 247 -120 93 33 127 85 134 207 16
283 172 543 404 673 307 172 677 85 730 -172 14 -69 15 -91 6 -309 -4 -99 -9
-225 -12 -280 -2 -55 -6 -158 -9 -230 -3 -71 -7 -193 -10 -270 -12 -294 -17
-331 -56 -407 -52 -102 -183 -161 -255 -114 -45 30 -67 98 -69 212 -3 133 -31
185 -119 225 -91 41 -196 19 -273 -57 -73 -72 -93 -139 -89 -294 6 -237 88
-408 248 -518 26 -18 53 -32 60 -32 8 0 18 -4 24 -10 19 -19 139 -42 223 -42
93 0 211 21 300 54 60 23 158 74 179 95 7 7 17 13 22 13 13 0 129 120 161 167
16 23 41 65 55 93 25 51 76 190 69 190 -2 0 0 14 5 31 12 39 19 137 25 319 7
214 15 475 21 640 11 329 12 558 2 601 -5 24 -21 79 -34 122 -75 245 -282 419
-569 478 -50 11 -258 22 -266 15z"/>
</g>
</svg>
